<?xml version="1.0" encoding="utf-8"?>
<!-- Generator: Adobe Illustrator 24.2.1, SVG Export Plug-In . SVG Version: 6.00 Build 0)  -->
<svg version="1.1" id="Layer_1" xmlns="http://www.w3.org/2000/svg" xmlns:xlink="http://www.w3.org/1999/xlink" x="0px" y="0px"
	 viewBox="0 0 48 48" style="enable-background:new 0 0 48 48;" xml:space="preserve">
<style type="text/css">
	.st0{fill-rule:evenodd;clip-rule:evenodd;fill:#FF7713;}
	.st1{fill-rule:evenodd;clip-rule:evenodd;fill:#353535;}
</style>
<rect y="0" class="st0" width="48" height="48"/>
<path class="st1" d="M48,0H0v48h48V0z M17.9,31c-0.5,2.8-2.9,5-5.9,5c-3.3,0-6-2.7-6-6s2.7-6,6-6c3,0,5.4,2.2,5.9,5H12
	c-0.6,0-1,0.4-1,1s0.4,1,1,1H17.9z M19.9,31c-0.5,3.9-3.9,7-7.9,7c-4.4,0-8-3.6-8-8s3.6-8,8-8c4.1,0,7.4,3.1,7.9,7h2.5l-4.9-13.7
	c0-0.1-0.1-0.2-0.1-0.3H16c-0.6,0-1-0.4-1-1s0.4-1,1-1h4.5c0.6,0,1,0.4,1,1s-0.4,1-1,1h-0.9l1.8,5.2l8.1-4.3l-1-2.5
	c-0.1-0.3-0.1-0.5,0-0.8c0.1-0.2,0.3-0.4,0.6-0.5l5-1.5l1-0.3l0.6,1.9l-1,0.3l-4,1.2l3.3,8.6c0.6-0.1,1.2-0.2,1.9-0.2
	c4.4,0,8,3.6,8,8s-3.6,8-8,8s-8-3.6-8-8c0-3.1,1.7-5.7,4.2-7.1l-1.6-4.3l-5.7,11.8C24.7,30.8,24.4,31,24,31H19.9z M22.1,22.1l2,5.5
	l4.2-8.8L22.1,22.1z M35.1,30.4L33,24.8c-1.8,1-3,3-3,5.2c0,3.3,2.7,6,6,6s6-2.7,6-6s-2.7-6-6-6c-0.4,0-0.8,0-1.2,0.1l2.1,5.5
	c0.2,0.5-0.1,1.1-0.6,1.3C35.8,31.1,35.3,30.9,35.1,30.4z"/>
</svg>
